<?xml version="1.0" standalone="no"?>
<!DOCTYPE svg PUBLIC "-//W3C//DTD SVG 1.1//EN" "http://www.w3.org/Graphics/SVG/1.1/DTD/svg11.dtd" >
<svg xmlns="http://www.w3.org/2000/svg">
<metadata>Generated by IcoMoon</metadata>
<defs>
<font id="iconfont" horiz-adv-x="1024">
<font-face units-per-em="1024" ascent="960" descent="-64" />
<missing-glyph horiz-adv-x="1024" />
<glyph unicode="&#x20;" horiz-adv-x="512" d="" />
<glyph unicode="&#xe900;" glyph-name="checkbox-indeterminate-fill" d="M170.667 832h682.667c23.564 0 42.667-19.103 42.667-42.667v0-682.667c0-23.564-19.103-42.667-42.667-42.667v0h-682.667c-23.564 0-42.667 19.103-42.667 42.667v0 682.667c0 23.564 19.103 42.667 42.667 42.667v0zM298.667 490.667v-85.333h426.667v85.333h-426.667z" />
<glyph unicode="&#xe901;" glyph-name="down-out" d="M64 609c0 8 3 16 9 22.2 12.3 12.7 32.6 13.1 45.3 0.8l394.1-380.5 393.3 380.5c12.7 12.3 33 12 45.3-0.7s12-33-0.7-45.3l-415.6-402c-12.4-12-32.1-12-44.5 0l-416.4 402c-6.5 6.3-9.8 14.6-9.8 23z" />
<glyph unicode="&#xe902;" horiz-adv-x="1365" d="M1331.2 243.85c0-113.108-290.358-204.8-648.533-204.8s-648.533 91.692-648.533 204.8c0 113.108 290.358 204.8 648.533 204.8s648.533-91.692 648.533-204.8z" />
<glyph unicode="&#xe903;" horiz-adv-x="1365" d="M580.267 39.050c0-37.703-30.564-68.267-68.267-68.267s-68.267 30.564-68.267 68.267c0 37.703 30.564 68.267 68.267 68.267s68.267-30.564 68.267-68.267z" />
<glyph unicode="&#xe904;" horiz-adv-x="1365" d="M1135.565 739.465h-89.481c-4.065-0.003-8.052-1.119-11.529-3.226l-40.32 121.498c-13.022 69.052-61.645 102.263-121.378 102.263h-379.187c-68.574 0-110.268-44.74-121.318-102.263l-40.559-121.856c-3.756 2.255-8.044 3.471-12.425 3.524h-89.6c-6.61-0.044-12.938-2.682-17.621-7.347-4.732-4.604-7.348-10.961-7.232-17.562v-21.444c0-13.739 11.055-24.849 24.853-24.849l33.988-5.854c-11.421-22.467-17.202-47.376-16.845-72.576l-12.544-143.241c0-4.181 0.299-8.482 0.896-12.663-0.505-2.661-0.804-5.357-0.896-8.064v-172.39c0.016-11.792 4.723-23.092 13.084-31.408s19.686-12.962 31.477-12.915h67.917c11.827 0 23.117 4.779 31.479 13.082 8.297 8.28 12.96 19.519 12.962 31.241l18.278 23.953h546.082l19.234-23.834c0-11.791 4.704-23.095 13.070-31.404s19.701-12.938 31.491-12.858h67.857c24.488-0.033 44.376 19.774 44.442 44.262v172.39c0.057 2.673-0.224 5.342-0.836 7.945 0.538 4.181 0.777 8.482 0.836 12.783l-12.544 143.241c0 27.836-6.093 51.789-16.905 72.695l33.212 5.675c13.766 0 24.936 11.142 24.969 24.909v21.623c-0.031 6.554-2.625 12.836-7.228 17.502-4.72 4.625-11.073 7.2-17.681 7.168v0z" />
<glyph unicode="&#xe905;" horiz-adv-x="1365" d="M402.219 765.030l29.628 78.788 0.478 1.911c2.987 15.949 9.617 18.756 19.294 30.942h463.829c9.856-12.544 16.009-15.889 18.697-30.822l30.046-80.819 11.051-43.844c-2.449-32.077-41.097-57.404-73.293-57.404h-437.367c-32.256 0-70.963 25.327-73.412 57.404l11.051 43.844z" />
<glyph unicode="&#xe906;" horiz-adv-x="1365" d="M423.006 390.562c-17.854-0.016-34.98 7.074-47.599 19.704s-19.693 29.762-19.661 47.616c0 37.214 30.046 67.2 67.26 67.2s67.319-29.986 67.319-67.2c0.119-17.801-6.929-34.884-19.533-47.548-12.672-12.673-29.865-19.787-47.787-19.772v0z" />
<glyph unicode="&#xe907;" horiz-adv-x="1365" d="M943.403 390.562c-37.18 0-67.319 30.14-67.319 67.319s30.14 67.319 67.319 67.319c37.274 0 67.26-30.106 67.26-67.319 0.119-17.801-6.929-34.884-19.413-47.548-12.724-12.633-29.917-19.737-47.846-19.772v0z" />
<glyph unicode="&#xe908;" horiz-adv-x="1138" d="M1109.333 192c0-94.257-241.965-170.667-540.444-170.667s-540.444 76.41-540.444 170.667c0 94.257 241.965 170.667 540.444 170.667s540.444-76.41 540.444-170.667z" />
<glyph unicode="&#xe909;" horiz-adv-x="1138" d="M483.556 21.333c0-31.419-25.47-56.889-56.889-56.889s-56.889 25.47-56.889 56.889c0 31.419 25.47 56.889 56.889 56.889s56.889-25.47 56.889-56.889z" />
<glyph unicode="&#xe90a;" horiz-adv-x="1138" d="M830.394 550.397c18.95 0 34.952 6.553 48.058 19.66s19.66 29.49 19.66 49.151c0 19.66-6.553 35.88-19.66 48.604-12.775 12.609-30.113 19.505-48.058 19.114-18.95 0-35.115-6.553-48.605-19.66-13.204-12.458-20.541-29.908-20.206-48.058 0-18.95 6.553-35.115 19.66-48.604s29.49-20.206 49.151-20.206v0zM693.865 731.708c18.95 0 34.952 6.553 48.058 19.66s19.66 29.49 19.66 49.151c0 19.66-6.553 35.88-19.66 48.604-12.775 12.609-30.113 19.505-48.058 19.114-18.95 0-35.115-6.553-48.605-19.66-13.204-12.458-20.541-29.908-20.206-48.058 0-18.95 6.553-35.115 19.66-48.604s29.49-20.206 49.151-20.206v0zM467.771 731.708c18.95 0 34.952 6.553 48.058 19.66s19.66 29.49 19.66 49.151c0 19.66-6.553 35.88-19.66 48.604-12.775 12.609-30.113 19.505-48.058 19.114-18.95 0-35.115-6.553-48.605-19.66-13.204-12.458-20.541-29.908-20.206-48.058 0-18.95 6.553-35.115 19.66-48.604s29.49-20.206 49.151-20.206v0zM331.241 550.397c18.95 0 34.952 6.553 48.058 19.66s19.66 29.49 19.66 49.151c0 19.66-6.553 35.88-19.66 48.604-12.775 12.609-30.113 19.505-48.058 19.114-18.95 0-35.115-6.553-48.605-19.66-13.204-12.458-20.541-29.908-20.206-48.058 0-18.95 6.553-35.115 19.66-48.604s29.49-20.206 49.151-20.206v0zM580.272 959.992c74.272 0 143.083-16.774 206.433-50.251 61.875-32.057 111.026-75.746 147.452-131.068 36.564-54.188 55.974-118.126 55.707-183.495 0-40.795-10.215-78.641-30.585-113.592-40.946-70.248-116.387-113.178-197.695-112.5h-78.641c-18.95 0-35.115-6.553-48.605-19.66-13.204-12.458-20.541-29.908-20.206-48.058 0-16.766 5.843-31.675 17.476-44.782 5.079-5.843 9.284-13.107 12.561-21.845s4.915-17.093 4.915-25.121c0-19.66-6.717-36.044-20.206-49.151-12.869-12.867-30.409-19.961-48.605-19.66-74.272 0-143.083 18.568-206.433 55.704-61.067 35.582-111.87 86.385-147.452 147.452-36.909 62.501-56.161 133.848-55.712 206.432 0 74.272 18.576 143.083 55.712 206.432 35.583 61.067 86.385 111.869 147.452 147.452 62.502 36.908 133.849 56.161 206.433 55.712z" />
<glyph unicode="&#xe90b;" horiz-adv-x="1078" d="M1050.947 178.526c0-89.296-229.23-161.684-512-161.684s-512 72.388-512 161.684c0 89.296 229.23 161.684 512 161.684s512-72.388 512-161.684z" />
<glyph unicode="&#xe90c;" horiz-adv-x="1078" d="M458.105 16.842c0-29.765-24.129-53.895-53.895-53.895s-53.895 24.129-53.895 53.895c0 29.765 24.129 53.895 53.895 53.895s53.895-24.129 53.895-53.895z" />
<glyph unicode="&#xe90d;" glyph-name="image" d="M959.884 832c0.040-0.034 0.082-0.076 0.116-0.116v-767.77c-0.034-0.040-0.076-0.082-0.116-0.116h-895.77c-0.040 0.034-0.082 0.076-0.114 0.116v767.772c0.034 0.040 0.076 0.082 0.114 0.114h895.77zM960 896h-896c-35.2 0-64-28.8-64-64v-768c0-35.2 28.8-64 64-64h896c35.2 0 64 28.8 64 64v768c0 35.2-28.8 64-64 64v0zM832 672c0-53.020-42.98-96-96-96s-96 42.98-96 96 42.98 96 96 96 96-42.98 96-96zM896 128h-768v128l224 384 256-320h64l224 192z" />
<glyph unicode="&#xe90e;" glyph-name="images" horiz-adv-x="1152" d="M1088 832h-64v64c0 35.2-28.8 64-64 64h-896c-35.2 0-64-28.8-64-64v-768c0-35.2 28.8-64 64-64h64v-64c0-35.2 28.8-64 64-64h896c35.2 0 64 28.8 64 64v768c0 35.2-28.8 64-64 64zM128 768v-640h-63.886c-0.040 0.034-0.082 0.076-0.114 0.116v767.77c0.034 0.040 0.076 0.082 0.114 0.114h895.77c0.040-0.034 0.082-0.076 0.116-0.116v-63.884h-768c-35.2 0-64-28.8-64-64v0zM1088 0.116c-0.034-0.040-0.076-0.082-0.116-0.116h-895.77c-0.040 0.034-0.082 0.076-0.114 0.116v767.77c0.034 0.040 0.076 0.082 0.114 0.114h895.77c0.040-0.034 0.082-0.076 0.116-0.116v-767.768zM960 608c0-53.020-42.98-96-96-96s-96 42.98-96 96 42.98 96 96 96 96-42.98 96-96zM1024 64h-768v128l224 384 256-320h64l224 192z" />
<glyph unicode="&#xe90f;" horiz-adv-x="1078" d="M861.222 874.6h-74.725v-38.594c0-42.7-36.131-77.188-79.652-77.188s-79.652 34.488-79.652 77.188v38.594h-190.507v-38.594c0-42.7-36.131-77.188-79.652-77.188s-79.652 34.488-79.652 77.188v38.594h-74.725c-21.35 0-40.236-17.244-40.236-38.594v-665.132c0-10.675 4.106-20.529 11.496-27.919s17.244-11.496 27.919-10.675h656.099c22.171 0 40.236 16.423 42.7 38.594v665.132c0.821 21.35-16.423 38.594-39.415 38.594z" />
<glyph unicode="&#xe910;" horiz-adv-x="1078" d="M734.765 258.738h-404.827c-15.602 0-27.098 14.781-27.098 32.846 0 18.886 12.317 32.846 27.098 32.846h405.648c13.96 0 26.277-14.781 26.277-32.846 0-17.244-13.138-32.846-27.098-32.846z" />
<glyph unicode="&#xe911;" horiz-adv-x="1078" d="M729.017 422.147h-394.152c-17.244 0-32.846 14.781-32.846 32.846s15.602 32.846 32.846 32.846h394.973c17.244 0 32.025-14.781 32.025-32.846s-13.96-32.846-32.846-32.846v0z" />
<glyph unicode="&#xe912;" horiz-adv-x="1078" d="M729.017 584.734h-394.152c-17.244 0-32.846 14.781-32.846 32.846s15.602 32.846 32.846 32.846h394.973c17.244 0 32.025-14.781 32.025-32.846s-13.96-32.846-32.846-32.846v0z" />
<glyph unicode="&#xe913;" horiz-adv-x="1078" d="M706.025 805.624c-10.675 0-20.529 3.285-27.919 10.675s-11.496 17.244-11.496 27.919v77.188c0 21.35 17.244 38.594 40.236 38.594s40.236-17.244 40.236-38.594v-77.188c-0.821-21.35-19.708-38.594-41.058-38.594v0zM357.857 805.624c-21.35 0-40.236 17.244-40.236 38.594v77.188c0 21.35 18.886 38.594 40.236 38.594s40.236-17.244 40.236-38.594v-77.188c0-21.35-17.244-38.594-40.236-38.594z" />
<glyph unicode="&#xe914;" horiz-adv-x="1138" d="M1109.333 192c0-94.257-241.965-170.667-540.444-170.667s-540.444 76.41-540.444 170.667c0 94.257 241.965 170.667 540.444 170.667s540.444-76.41 540.444-170.667z" />
<glyph unicode="&#xe915;" horiz-adv-x="1138" d="M483.556 21.333c0-31.419-25.47-56.889-56.889-56.889s-56.889 25.47-56.889 56.889c0 31.419 25.47 56.889 56.889 56.889s56.889-25.47 56.889-56.889z" />
<glyph unicode="&#xe916;" horiz-adv-x="1138" d="M170.667 714.667v-403.2l397.511-200.533 397.511 220.861 1.422 382.872z" />
<glyph unicode="&#xe917;" horiz-adv-x="1138" d="M170.667 499.2v96.711l386.844-216.178c5.689-5.689 11.378-5.689 17.067 0l392.533 233.244v-96.711l-352.711-210.489c-34.133-17.067-73.956-17.067-102.4 0l-341.333 193.422z" />
<glyph unicode="&#xe918;" horiz-adv-x="1138" d="M170.667 311.467v102.4l386.844-221.867h17.067l392.533 233.244v-96.711l-352.711-204.8c-34.133-17.067-73.956-17.067-102.4 0l-341.333 187.733z" />
<glyph unicode="&#xe919;" horiz-adv-x="1138" d="M187.733 749.511l312.889 193.422c34.133 22.756 73.956 22.756 108.089 0l335.644-193.422c28.444-17.067 28.444-56.889 0-73.956l-341.333-193.422c-34.133-17.067-73.956-17.067-108.089 0l-307.2 193.422c-10.754 8.19-17.044 22.181-17.070 39.111-0.020 17.202 9.526 28.891 17.070 34.844z" />
<glyph unicode="&#xe91a;" horiz-adv-x="1205" d="M1174.588 207.059c0-99.801-256.198-180.706-572.235-180.706s-572.235 80.905-572.235 180.706c0 99.801 256.198 180.706 572.235 180.706s572.235-80.905 572.235-180.706z" />
<glyph unicode="&#xe91b;" horiz-adv-x="1205" d="M512 26.353c0-33.267-26.968-60.235-60.235-60.235s-60.235 26.968-60.235 60.235c0 33.267 26.968 60.235 60.235 60.235s60.235-26.968 60.235-60.235z" />
<glyph unicode="&#xe91c;" horiz-adv-x="1205" d="M1058.199 238.955v549.534c0 65.944-61.059 61.059-61.059 61.059h-344.375c-19.54 0-31.751 9.769-31.751 9.769s-14.655 24.424-41.52 63.501c-24.424 43.963-56.174 36.636-56.174 36.636h-266.22c-75.715 0.001-75.715-70.829-75.715-70.829v-644.787c0-80.598 61.059-70.829 61.059-70.829h762.022c63.503 0.002 53.733 65.947 53.733 65.947z" />
<glyph unicode="&#xe91d;" horiz-adv-x="1205" d="M381.718 384.923c-24.28 0-43.963 19.683-43.963 43.963s19.683 43.963 43.963 43.963c24.28 0 43.963-19.683 43.963-43.963s-19.683-43.963-43.963-43.963z" />
<glyph unicode="&#xe91e;" horiz-adv-x="1205" d="M381.718 555.89c-24.28 0-43.963 19.683-43.963 43.963s19.683 43.964 43.963 43.964c24.28 0 43.963-19.683 43.963-43.964s-19.683-43.963-43.963-43.963z" />
<glyph unicode="&#xe91f;" horiz-adv-x="1205" d="M857.925 380.613h-293.086c-24.424 0-43.963 19.54-43.963 43.963s19.54 43.963 43.963 43.963h293.085c24.424 0 43.963-19.54 43.963-43.963s-19.538-43.963-43.961-43.963v0z" />
<glyph unicode="&#xe920;" horiz-adv-x="1205" d="M857.925 554.021h-293.086c-24.424 0-43.963 19.54-43.963 43.963s19.54 43.963 43.963 43.963h293.085c24.424 0 43.963-19.54 43.963-43.963s-19.538-43.963-43.961-43.963v0z" />
<glyph unicode="&#xe926;" glyph-name="file-text" d="M917.806 730.924c-22.212 30.292-53.174 65.7-87.178 99.704s-69.412 64.964-99.704 87.178c-51.574 37.82-76.592 42.194-90.924 42.194h-496c-44.112 0-80-35.888-80-80v-864c0-44.112 35.888-80 80-80h736c44.112 0 80 35.888 80 80v624c0 14.332-4.372 39.35-42.194 90.924zM785.374 785.374c30.7-30.7 54.8-58.398 72.58-81.374h-153.954v153.946c22.984-17.78 50.678-41.878 81.374-72.572zM896 16c0-8.672-7.328-16-16-16h-736c-8.672 0-16 7.328-16 16v864c0 8.672 7.328 16 16 16 0 0 495.956 0.002 496 0v-224c0-17.672 14.326-32 32-32h224v-624zM736 128h-448c-17.672 0-32 14.326-32 32s14.328 32 32 32h448c17.674 0 32-14.326 32-32s-14.326-32-32-32zM736 256h-448c-17.672 0-32 14.326-32 32s14.328 32 32 32h448c17.674 0 32-14.326 32-32s-14.326-32-32-32zM736 384h-448c-17.672 0-32 14.326-32 32s14.328 32 32 32h448c17.674 0 32-14.326 32-32s-14.326-32-32-32z" />
<glyph unicode="&#xe948;" glyph-name="location" d="M512 960c-176.732 0-320-143.268-320-320 0-320 320-704 320-704s320 384 320 704c0 176.732-143.27 320-320 320zM512 444c-108.248 0-196 87.752-196 196s87.752 196 196 196 196-87.752 196-196-87.752-196-196-196zM388 640c0 68.483 55.517 124 124 124s124-55.517 124-124c0-68.483-55.517-124-124-124s-124 55.517-124 124z" />
<glyph unicode="&#xe962;" glyph-name="floppy-disk" d="M896 960h-896v-1024h1024v896l-128 128zM512 832h128v-256h-128v256zM896 64h-768v768h64v-320h576v320h74.978l53.022-53.018v-714.982z" />
<glyph unicode="&#xe97a;" glyph-name="spinner" d="M384 832c0 70.692 57.308 128 128 128s128-57.308 128-128c0-70.692-57.308-128-128-128s-128 57.308-128 128zM655.53 719.53c0 70.692 57.308 128 128 128s128-57.308 128-128c0-70.692-57.308-128-128-128s-128 57.308-128 128zM832 448c0 35.346 28.654 64 64 64s64-28.654 64-64c0-35.346-28.654-64-64-64s-64 28.654-64 64zM719.53 176.47c0 35.346 28.654 64 64 64s64-28.654 64-64c0-35.346-28.654-64-64-64s-64 28.654-64 64zM448.002 64c0 0 0 0 0 0 0 35.346 28.654 64 64 64s64-28.654 64-64c0 0 0 0 0 0 0-35.346-28.654-64-64-64s-64 28.654-64 64zM176.472 176.47c0 0 0 0 0 0 0 35.346 28.654 64 64 64s64-28.654 64-64c0 0 0 0 0 0 0-35.346-28.654-64-64-64s-64 28.654-64 64zM144.472 719.53c0 0 0 0 0 0 0 53.019 42.981 96 96 96s96-42.981 96-96c0 0 0 0 0 0 0-53.019-42.981-96-96-96s-96 42.981-96 96zM56 448c0 39.765 32.235 72 72 72s72-32.235 72-72c0-39.765-32.235-72-72-72s-72 32.235-72 72z" />
<glyph unicode="&#xe986;" glyph-name="search" d="M992.262 88.604l-242.552 206.294c-25.074 22.566-51.89 32.926-73.552 31.926 57.256 67.068 91.842 154.078 91.842 249.176 0 212.078-171.922 384-384 384-212.076 0-384-171.922-384-384s171.922-384 384-384c95.098 0 182.108 34.586 249.176 91.844-1-21.662 9.36-48.478 31.926-73.552l206.294-242.552c35.322-39.246 93.022-42.554 128.22-7.356s31.892 92.898-7.354 128.22zM384 320c-141.384 0-256 114.616-256 256s114.616 256 256 256 256-114.616 256-256-114.614-256-256-256z" />
<glyph unicode="&#xe9b6;" glyph-name="switch" d="M640 813.412v-135.958c36.206-15.804 69.5-38.408 98.274-67.18 60.442-60.44 93.726-140.8 93.726-226.274s-33.286-165.834-93.726-226.274c-60.44-60.44-140.798-93.726-226.274-93.726s-165.834 33.286-226.274 93.726c-60.44 60.44-93.726 140.8-93.726 226.274s33.286 165.834 93.726 226.274c28.774 28.774 62.068 51.378 98.274 67.182v135.956c-185.048-55.080-320-226.472-320-429.412 0-247.424 200.578-448 448-448 247.424 0 448 200.576 448 448 0 202.94-134.95 374.332-320 429.412zM448 960h128v-512h-128z" />
<glyph unicode="&#xe9bb;" glyph-name="list" d="M384 896h640v-128h-640v128zM384 512h640v-128h-640v128zM384 128h640v-128h-640v128zM0 832c0 70.692 57.308 128 128 128s128-57.308 128-128c0-70.692-57.308-128-128-128s-128 57.308-128 128zM0 448c0 70.692 57.308 128 128 128s128-57.308 128-128c0-70.692-57.308-128-128-128s-128 57.308-128 128zM0 64c0 70.692 57.308 128 128 128s128-57.308 128-128c0-70.692-57.308-128-128-128s-128 57.308-128 128z" />
<glyph unicode="&#xe9c7;" glyph-name="download" d="M736 512l-256-256-256 256h160v384h192v-384zM480 256h-480v-256h960v256h-480zM896 128h-128v64h128v-64z" />
<glyph unicode="&#xe9c8;" glyph-name="upload" d="M480 256h-480v-256h960v256h-480zM896 128h-128v64h128v-64zM224 640l256 256 256-256h-160v-320h-192v320z" />
<glyph unicode="&#xea52;" glyph-name="checkbox-checked" d="M896 960h-768c-70.4 0-128-57.6-128-128v-768c0-70.4 57.6-128 128-128h768c70.4 0 128 57.6 128 128v768c0 70.4-57.6 128-128 128zM448 165.49l-237.254 237.256 90.51 90.508 146.744-146.744 306.746 306.746 90.508-90.51-397.254-397.256z" />
<glyph unicode="&#xea53;" glyph-name="checkbox-unchecked" d="M896 960h-768c-70.4 0-128-57.6-128-128v-768c0-70.4 57.6-128 128-128h768c70.4 0 128 57.6 128 128v768c0 70.4-57.6 128-128 128zM896 64h-768v768h768v-768z" />
<glyph unicode="&#xea54;" glyph-name="radio-checked" d="M512 960c-282.77 0-512-229.23-512-512s229.23-512 512-512 512 229.23 512 512-229.23 512-512 512zM512 64c-212.078 0-384 171.922-384 384s171.922 384 384 384c212.078 0 384-171.922 384-384s-171.922-384-384-384zM320 448c0 106.039 85.961 192 192 192s192-85.961 192-192c0-106.039-85.961-192-192-192s-192 85.961-192 192z" />
<glyph unicode="&#xea56;" glyph-name="radio-unchecked" d="M512 960c-282.77 0-512-229.23-512-512s229.23-512 512-512 512 229.23 512 512-229.23 512-512 512zM512 64c-212.078 0-384 171.922-384 384s171.922 384 384 384c212.078 0 384-171.922 384-384s-171.922-384-384-384z" />
<glyph unicode="&#xea7b;" glyph-name="indent-increase" d="M0 896h1024v-128h-1024zM384 704h640v-128h-640zM384 512h640v-128h-640zM384 320h640v-128h-640zM0 128h1024v-128h-1024zM0 256v384l256-192z" />
<glyph unicode="&#xea7c;" glyph-name="indent-decrease" d="M0 896h1024v-128h-1024zM384 704h640v-128h-640zM384 512h640v-128h-640zM384 320h640v-128h-640zM0 128h1024v-128h-1024zM256 640v-384l-256 192z" />
</font>
</defs>
</svg>
